<svg width="92" height="101" viewBox="0 0 92 101" fill="none" xmlns="http://www.w3.org/2000/svg">
<path fill-rule="evenodd" clip-rule="evenodd" d="M91.3581 79.1714C91.1511 79.0367 90.3438 79.2612 89.5638 79.6702C88.3279 80.3184 88.1462 80.6236 88.1462 82.0492C88.1462 82.9487 88.0064 83.6841 87.8351 83.6841C87.6637 83.6837 87.5239 83.8938 87.5239 84.1506C87.5239 84.4079 87.2107 84.9472 86.8273 85.3496C86.1756 86.0349 86.1768 86.0907 86.8448 86.2259C87.7749 86.4142 87.3633 87.8991 86.0142 89.2214C85.4753 89.7494 85.0347 90.4613 85.0347 90.8031C85.0347 91.1449 84.7546 91.6685 84.4124 91.9672C83.6125 92.6647 83.6088 93.7111 84.4061 93.7111C84.7575 93.7111 84.1975 94.5534 83.1014 95.673C81.132 97.6845 80.3139 98.1366 80.7358 96.9809C80.9017 96.527 80.7072 96.3269 80.1006 96.3269C79.6198 96.3269 79.2265 96.0915 79.2265 95.8037C79.2265 95.397 79.1157 95.397 78.7286 95.8037C78.4548 96.0915 77.9508 96.3269 77.6085 96.3269C77.1243 96.3269 77.097 96.2105 77.484 95.8037C78.1848 95.0674 78.1039 93.7111 77.3596 93.7111C77.0173 93.7111 76.7373 93.521 76.7373 93.2886C76.7373 93.0567 77.0119 92.9773 77.348 93.1129C77.684 93.2481 78.5142 93.1007 79.1929 92.7851C80.7615 92.0553 81.2685 90.2996 80.1819 89.3605C79.4418 88.7205 79.4414 88.6699 80.1653 87.9187C80.5786 87.4902 81.0963 87.2565 81.3158 87.3995C82.0153 87.8533 81.7464 86.6963 80.886 85.5466C80.4296 84.9367 80.0562 84.2683 80.0562 84.0608C80.0562 83.8533 80.4296 83.6837 80.886 83.6837C81.5929 83.6837 81.7157 83.3929 81.7157 81.7218C81.7157 80.6428 81.5738 79.76 81.4008 79.76C81.2274 79.76 80.8403 79.3471 80.5404 78.8422C80.1425 78.173 80.1326 78.0143 80.5035 78.255C80.8939 78.5083 80.9353 78.1377 80.6827 76.6659C80.5014 75.6099 80.3902 73.7161 80.4358 72.4574C80.4856 71.0845 80.3433 70.1686 80.0799 70.1686C79.8388 70.1686 79.6414 69.788 79.6414 69.3223C79.6414 68.8567 79.4518 68.3527 79.2199 68.2023C78.9879 68.0515 78.9054 67.7459 79.0369 67.5226C79.168 67.2994 79.0668 67.1168 78.8116 67.1168C78.5382 67.1168 78.4855 66.8931 78.6834 66.5718C79.2493 65.6528 79.0572 63.901 78.3026 63.1006C77.8778 62.6502 77.6956 62.0394 77.8558 61.6013C78.0537 61.0602 77.957 60.9299 77.4965 61.1156C77.0177 61.3087 76.9111 61.1252 77.0522 60.3496C77.1692 59.7065 76.9153 58.9658 76.3651 58.3454C75.8855 57.8039 75.4927 56.9865 75.4927 56.5292C75.4927 56.0718 75.1993 54.6375 74.8409 53.3418C74.3883 51.7051 73.9763 50.9836 73.4926 50.9792C72.9719 50.974 72.9308 50.8824 73.3308 50.6161C73.9647 50.1932 73.4586 48.438 72.4492 47.5573C72.0965 47.2499 71.9065 46.7289 72.0268 46.3993C72.1472 46.0702 71.5912 45.1128 70.7914 44.2722C69.8666 43.3009 69.4082 42.4577 69.5326 41.9581C69.6401 41.5256 69.3447 40.74 68.8767 40.2116C68.4083 39.6832 68.025 38.9874 68.025 38.6656C68.025 37.9288 64.8994 32.8049 63.6033 31.4167C63.069 30.8443 62.6317 30.2069 62.6317 29.9998C62.6317 29.7927 62.2985 29.273 61.8907 28.8445C61.4833 28.4164 60.6212 27.3373 59.9749 26.4466C59.3285 25.5564 58.4539 24.8274 58.032 24.8274C57.5429 24.8274 57.3458 24.6051 57.4885 24.214C57.781 23.4127 52.9013 18.1701 51.119 17.3714C50.3524 17.0279 49.7707 16.4476 49.7707 16.0265C49.7707 15.0922 48.2232 13.9281 46.9815 13.9281C46.4621 13.9281 46.0369 13.7293 46.0369 13.486C46.0369 12.6695 43.3531 10.4682 42.0205 10.1923C41.2949 10.0419 40.595 9.62812 40.4652 9.2728C40.2942 8.80413 39.8881 8.7056 38.9849 8.91443C37.9593 9.15117 37.7847 9.08054 37.9917 8.5129C38.1543 8.06734 38.0154 7.8245 37.5972 7.8245C37.2416 7.8245 36.8019 7.54897 36.6193 7.21196C36.4368 6.87539 35.914 6.53185 35.4577 6.44901C35.0013 6.36618 34.3811 6.05315 34.0799 5.75363C33.7783 5.45368 33.2647 5.20867 32.939 5.20867C32.6129 5.20867 32.3462 5.00071 32.3462 4.74697C32.3462 4.48583 32.1209 4.43395 31.8276 4.62708C30.8655 5.26099 28.9504 4.60615 25.9157 2.60548C25.1535 2.1028 23.8645 1.77233 22.5905 1.75271C21.3546 1.73397 19.8818 1.36688 18.962 0.848944C17.2507 -0.114992 15.1734 -0.267582 13.4015 0.440001C12.59 0.764365 12.1984 0.765236 12.0963 0.443489C11.9943 0.122177 11.7035 0.123049 11.1276 0.446541C10.5418 0.776136 10.146 0.770904 9.75315 0.42823C9.34285 0.0702963 9.04497 0.111277 8.59151 0.587795C8.13599 1.06606 7.86176 1.10312 7.51036 0.733846C7.15855 0.364142 7.03907 0.369809 7.03907 0.756517C7.03907 1.04164 6.2923 1.40001 5.37959 1.55347C4.3785 1.72176 3.72011 2.06966 3.72011 2.43065C3.72011 2.84875 3.15879 3.0288 1.85319 3.0288C0.346794 3.0288 -0.0112306 3.17616 -0.000442671 3.79176C0.0178068 4.85684 1.09149 6.30252 1.32257 5.57358C1.43127 5.23134 2.08137 5.06131 3.02395 5.12801C3.86324 5.1873 4.54985 5.03384 4.54985 4.78621C4.54985 4.1789 7.9887 4.21421 9.28559 4.83504C10.1137 5.23177 10.6036 5.19254 11.6819 4.64365C12.6029 4.17498 13.1248 4.10304 13.3107 4.41912C13.4613 4.67504 13.7695 4.76397 13.9964 4.61662C14.223 4.46969 15.1153 4.85335 15.9795 5.46938C17.3092 6.41762 17.7066 6.51484 18.5675 6.10285C19.4151 5.69696 19.5453 5.72355 19.3487 6.26198C19.1342 6.8488 20.0565 7.4827 21.3521 7.63878C21.5803 7.66624 22.2926 7.91519 22.9348 8.19246C23.577 8.46974 24.3549 8.69645 24.6636 8.69645C24.9718 8.69645 25.3191 8.9419 25.4348 9.24141C25.5962 9.65995 25.7269 9.66561 25.9978 9.26626C26.2488 8.89569 26.7541 9.17994 27.754 10.2546C28.7086 11.2809 29.3993 11.6829 29.9129 11.5115C30.361 11.362 31.0223 11.607 31.5401 12.114C32.9083 13.4533 34.4973 13.6068 35.3448 12.4816C35.9609 11.6637 36.063 11.6371 36.0709 12.2932C36.0758 12.7126 36.3638 13.0562 36.7102 13.0562C37.1752 13.0562 37.2723 13.3417 37.0802 14.1461C36.9222 14.8075 37.0006 15.2574 37.2798 15.2905C37.5324 15.3206 37.9262 15.3939 38.1543 15.454C38.3825 15.5142 38.7559 15.5874 38.9841 15.6175C39.2123 15.6476 39.3989 15.9663 39.3989 16.326C39.3989 16.6856 39.5968 16.9799 39.8383 16.9799C40.0798 16.9799 40.1731 16.802 40.0453 16.5845C39.9171 16.3674 40.1735 16.2885 40.6141 16.4097C41.0551 16.5309 41.3405 16.8557 41.2489 17.1321C41.0381 17.7647 41.9583 19.0626 42.7449 19.2418C43.0722 19.3167 43.5945 19.737 43.9057 20.1756C44.3131 20.7507 44.7678 20.8954 45.5336 20.6931C46.4049 20.4633 46.5111 20.5213 46.1223 21.0131C45.7469 21.4888 46.1422 22.1758 48.0208 24.3147C49.3255 25.8005 50.6262 27.0143 50.9116 27.0117C51.1966 27.0095 51.4302 27.1655 51.4302 27.3591C51.4302 27.9198 55.0084 31.803 55.5254 31.803C55.783 31.803 56.3995 32.2294 56.8957 32.7508C57.4927 33.3782 57.5744 33.6084 57.1371 33.4322C55.9581 32.9566 56.0415 34.2423 57.2803 35.6352C57.9449 36.3824 58.6738 37.4445 58.8999 37.9951C59.5085 39.4787 60.2827 40.6955 60.8685 41.0892C61.1535 41.281 61.3875 41.7715 61.3875 42.1791C61.3879 42.5868 61.8546 43.4901 62.4247 44.1872C62.9951 44.8839 63.4614 45.8156 63.4614 46.2581C63.4614 46.7002 63.7415 47.062 64.0837 47.062C64.477 47.062 64.706 47.4784 64.706 48.1938C64.706 48.8159 64.9848 49.8461 65.3259 50.4827C65.6665 51.1192 66.3132 52.5714 66.763 53.7106C67.2127 54.8498 67.774 55.7815 68.0101 55.7815C68.2465 55.7815 68.4399 56.1529 68.4399 56.6068C68.4399 57.0606 68.7166 57.5437 69.0551 57.6801C69.3937 57.8166 69.5729 58.1963 69.453 58.5237C69.3335 58.8511 69.4302 59.6564 69.6679 60.3134C70.0102 61.2595 70.2939 61.457 71.0332 61.2643C71.5464 61.1309 71.7327 61.1339 71.4477 61.2717C70.8283 61.5703 70.7573 63.0299 71.344 63.411C71.5721 63.5592 71.7738 64.1103 71.7916 64.6356C71.8094 65.161 71.9186 65.3458 72.0335 65.0459C72.3251 64.2869 73.0034 64.3632 73.0034 65.1549C73.0034 65.5146 73.1843 65.8088 73.4055 65.8088C73.6262 65.8088 73.6996 66.1031 73.5685 66.4628C73.2876 67.2318 72.1737 67.3478 72.1737 66.608C72.1737 66.3285 72.0505 66.2291 71.8995 66.3874C71.7489 66.5456 71.9646 67.0688 72.3786 67.5501C72.8051 68.0449 72.9242 68.4247 72.6529 68.4247C72.0658 68.4247 72.0136 70.0134 72.5886 70.3866C72.8167 70.5348 73.0034 71.0366 73.0034 71.5022C73.0034 72.1265 73.303 72.3576 74.1443 72.3829L75.2852 72.4173L74.2045 72.8341C73.3341 73.1698 73.1632 73.4667 73.3262 74.3613C73.437 74.9721 73.7822 75.5742 74.0933 75.6997C74.404 75.8249 74.5571 76.0991 74.4339 76.3088C74.3107 76.5185 74.4115 77.0866 74.6584 77.5709C74.9662 78.1752 74.9703 78.452 74.6725 78.452C74.1356 78.452 74.604 82.0309 75.194 82.436C75.4167 82.589 75.4528 82.9626 75.2744 83.2665C75.0653 83.6218 75.1168 83.7099 75.4188 83.5137C76.0449 83.1069 75.7694 87.4911 75.1263 88.1668C74.4584 88.8687 74.5343 90.3685 75.2238 90.0903C75.6209 89.9303 75.7723 90.2346 75.7424 91.1327C75.7192 91.8303 75.4819 92.4014 75.2155 92.4023C74.9488 92.4027 74.4576 92.5135 74.124 92.6477C73.7158 92.8125 73.3723 92.4559 73.0744 91.5578C72.5977 90.1208 72.2073 89.9264 71.4319 90.7412C71.0519 91.1406 70.8797 90.944 70.6768 89.8789C70.5325 89.1198 70.2035 88.3172 69.9454 88.0957C69.1186 87.3834 64.706 87.3127 64.706 88.0116C64.706 88.7392 67.0368 89.6971 67.7653 89.269C68.661 88.7419 68.6324 89.3252 67.7284 90.0197C67.06 90.5333 67.0662 90.6636 67.8321 92.1686C68.3864 93.2581 69.0199 93.8502 69.811 94.0184C70.5204 94.1693 70.8959 94.481 70.7731 94.8171C70.5134 95.5282 71.9638 95.9371 72.5521 95.3189C73.0931 94.7504 74.0709 95.9755 74.4007 97.6348C74.6667 98.9728 76.5954 100.045 77.4284 99.3185C77.8371 98.9624 77.9819 98.972 77.9819 99.3547C77.9819 99.6673 78.2976 99.768 78.7768 99.6085C79.214 99.4624 79.6916 99.5474 79.8384 99.7968C80.257 100.509 81.215 100.327 81.1511 99.5479C81.0843 98.7326 82.3538 97.7242 82.8247 98.219C83.0002 98.4034 82.8691 98.7365 82.5334 98.9597C82.0945 99.2514 82.0733 99.3674 82.4583 99.3722C83.5889 99.3861 85.4707 97.4273 85.8868 95.8042C86.1324 94.8446 86.5664 94.147 86.9178 94.147C87.5907 94.147 87.7359 93.4643 87.1443 93.0802C86.9356 92.9446 86.6705 93.0802 86.5548 93.3815C86.412 93.7534 86.3345 93.7154 86.3121 93.2633C86.2942 92.8967 86.5701 92.1612 86.9252 91.6284C87.3376 91.0089 87.4003 90.6593 87.0978 90.6593C86.8377 90.6593 86.7066 90.4143 86.8062 90.1143C86.9062 89.8148 87.27 89.6208 87.6152 89.684C88.3736 89.8226 88.9199 89.1447 89.4912 87.3563C89.841 86.2612 89.7953 85.9259 89.2402 85.5292C88.6362 85.0967 88.6553 85.04 89.4116 85.0173C91.1138 84.9659 91.8755 83.021 90.6217 81.9276C90.0567 81.435 90.0836 81.2632 90.8603 80.3943C91.3415 79.8563 91.5656 79.3057 91.3581 79.1714ZM90.0588 77.2065C89.8393 76.8429 89.6032 76.7831 89.4452 77.0517C89.3037 77.2924 89.4672 77.601 89.8082 77.7388C90.5247 78.0274 90.5371 78.0004 90.0588 77.2065ZM78.293 82.2284C78.0076 82.1077 78.2412 82.0087 78.8116 82.0087C79.3821 82.0087 79.6152 82.1077 79.3302 82.2284C79.0448 82.3496 78.5781 82.3496 78.293 82.2284ZM76.1042 75.3161C75.9764 75.1818 76.2067 74.9381 76.6157 74.7742C77.2069 74.5379 77.2546 74.5876 76.848 75.0183C76.5663 75.3165 76.2315 75.4504 76.1042 75.3161ZM72.796 61.171C72.4537 61.0328 72.1737 60.8427 72.1737 60.7485C72.1737 60.6543 72.4537 60.5772 72.796 60.5772C73.1383 60.5772 73.4183 60.7672 73.4183 60.9996C73.4183 61.2316 73.1383 61.3087 72.796 61.171ZM72.5106 63.4908C72.1799 63.3517 72.2782 63.2484 72.7616 63.2274C73.1988 63.2087 73.4436 63.3116 73.3059 63.4563C73.1681 63.6011 72.8101 63.6168 72.5106 63.4908ZM19.5628 5.10883C18.8164 5.37041 18.9732 4.46926 19.7275 4.16495C20.1311 4.00233 20.3211 4.09955 20.2199 4.41825C20.1295 4.70294 19.8341 5.01379 19.5628 5.10883Z" fill="white"/>
</svg>
