<svg width="40" height="41" viewBox="0 0 40 41" fill="none" xmlns="http://www.w3.org/2000/svg">
<path d="M20 37.569C19.8921 37.569 19.7841 37.5393 19.6893 37.4797C13.7925 33.7923 9.74415 28.529 7.65671 21.8379C5.99624 16.5114 6.07252 11.8639 6.10508 9.87881C6.1088 9.67416 6.11159 9.50207 6.11159 9.36625C6.11159 9.07881 6.31996 8.83416 6.60368 8.78765C10.7516 8.11323 19.6883 4.47695 19.7786 4.43974C19.9209 4.38207 20.08 4.38207 20.2214 4.43974C20.3116 4.47602 29.2483 8.11323 33.3962 8.78765C33.68 8.83416 33.8883 9.07881 33.8883 9.36625C33.8883 9.50207 33.8911 9.67416 33.8948 9.87881C33.9274 11.8639 34.0046 16.5114 32.3432 21.8369C30.2558 28.529 26.2074 33.7914 20.3107 37.4788C20.2158 37.5393 20.1079 37.569 20 37.569ZM7.2781 9.85741C7.2781 9.87137 7.2781 9.88439 7.27717 9.89834C7.03252 24.7253 13.9851 32.4183 20 36.289C26.0148 32.4183 32.9674 24.7253 32.7228 9.89834C32.7228 9.88439 32.7228 9.87137 32.7218 9.85741C28.6446 9.0602 21.3897 6.17648 20 5.61555C18.6102 6.17648 11.3553 9.0602 7.2781 9.85741Z" fill="#193B4E"/>
<path d="M17.4799 25.765C17.3246 25.765 17.1757 25.7036 17.065 25.5929L12.866 21.3938C12.6371 21.165 12.6371 20.7938 12.866 20.565C13.0948 20.3362 13.466 20.3362 13.6948 20.565L17.479 24.3492L27.0185 14.778C27.2474 14.5483 27.6185 14.5483 27.8474 14.7762C28.0762 15.005 28.0771 15.3762 27.8483 15.605L17.8948 25.592C17.785 25.7027 17.6353 25.765 17.4799 25.765Z" fill="#08A88A"/>
</svg>
